# xmcd CD database file
#
# Track frame offsets:
#	150
#	19462
#	40611
#	54713
#	64965
#	77322
#	88650
#	100784
#	116474
#	129039
#	149986
#	167625
#	179436
#	188625
#	202243
#	218732
#	230886
#	244682
#
# Disc length: 3401 seconds
#
# Revision: 1
# Processed by: cddbd v1.5.1PL0 Copyright (c) Steve Scherf et al.
# Submitted via: CDex 1.51
#
DISCID=020d4712
DTITLE=Johnny Winter - Avocado Green
DYEAR=2002
DGENRE=Blues
TTITLE0=Prodigal Son
TTITLE1=Going Down Slow
TTITLE2=Low Down Gal Of Mine
TTITLE3=38, 32, 20
TTITLE4=Rock 'N Roll People
TTITLE5=Avocado Green
TTITLE6=Parchman Farm
TTITLE7=Self Destruction Blues
TTITLE8=Leavin' Blues
TTITLE9=Raised On Rock
TTITLE10=Stranger
TTITLE11=Bad News
TTITLE12=Roadrunner
TTITLE13=Golden Days Of Rock 'N Roll
TTITLE14=Kind Hearted Woman
TTITLE15=Livin' The Blues
TTITLE16=Roll With Me
TTITLE17=Out Of Sight
EXTD=YEAR: 2002
EXTT0=
EXTT1=
EXTT2=
EXTT3=
EXTT4=
EXTT5=
EXTT6=
EXTT7=
EXTT8=
EXTT9=
EXTT10=
EXTT11=
EXTT12=
EXTT13=
EXTT14=
EXTT15=
EXTT16=
EXTT17=
PLAYORDER=
